<svg width="243" height="109" viewBox="0 0 243 109" fill="none" xmlns="http://www.w3.org/2000/svg">
<g clip-path="url(#clip0_7_22)">
<path d="M29.3 12.6C29.8 13.2 30.1 13.4 30.6 13.1C31 12.9 31.1 12.5 30.9 11.8C30.1 9.4 29.2 6.3 28.2 5.1C27.9 4.8 26.5 3.6 25.8 3.9C25.2 4.2 25.4 6.2 25.5 6.5C25.7 8.1 27.8 10.6 29.3 12.6ZM48.9 59.6C50.5 59.6 52.2 59.4 53.8 59C53.9 59 53.9 58.9 53.9 58.9L53.6 57.8V57.7H53.5C53.1 57.8 52.7 57.8 52.4 57.9C51.6 57.7 50.5 57.4 50.1 57.4C49.6 57.4 49.2 57.8 49.1 58C49 57.8 48.6 57.5 48.1 57.5C47.7 57.5 46.8 57.8 46 58.1C45.5 58 45.1 57.9 44.8 57.9H44.7V58L44.4 59.1C44.4 59.2 44.4 59.2 44.5 59.2C45.3 59.3 46.9 59.6 48.9 59.6ZM6.1 21.1C6.8 21.5 7.5 21.8 8.2 22.2C9.5 22.9 10.7 23.5 12 24.2C12.4 24.4 13 24.7 13.4 25C14 25.4 14.7 25.4 14.9 25C15.2 24.6 14.9 24 14.4 23.6C14 23.3 13.5 22.9 13.2 22.5C12.1 21.6 11.1 20.6 10 19.7C9.4 19.2 8.8 18.7 8.2 18.1C7.4 17.4 6.5 16.9 5.5 16.6C5.1 16.5 3.3 16 2.8 16.6C2.4 17.2 3.5 18.8 3.7 19.1C4.3 19.9 5.1 20.7 6.1 21.1Z" fill="white"/>
<path d="M18.1 16.3L35.5 34C36.2 33.3 37 32.7 37.8 32.1C39.1 31.2 40.5 30.4 42.1 29.9C43.6 29.3 45.1 29 46.8 28.7C47.6 28.6 48.4 28.6 49.2 28.6H49.6L50.8 17.8C50.9 16.7 50.8 15.6 50.3 14.7C50.1 14.3 49.7 13.6 49.3 13.6C48.9 13.6 48.5 14.2 48.3 14.7C47.8 15.7 47.6 16.8 47.8 17.8L48.5 24.4V25.5C48.5 26.5 47.8 27.3 46.8 27.4C45.8 27.5 44.9 26.9 44.7 25.9C44.5 24.9 44.1 22.8 43.8 21.4C43.4 19 42.9 16.5 42.5 14.1C42.3 12.7 42 11.4 41.8 10C41.5 8.2 41 6.4 40.2 4.8C39.9 4.2 38.5 1.3 37.8 1.5C37.1 1.7 37.2 4.9 37.2 5.6C37.3 7.3 37.6 9.2 38.2 10.9C38.6 12.2 39 13.6 39.5 14.9C40.3 17.3 41 19.6 41.8 22C42.3 23.4 42.9 25.4 43.1 26.4C43.3 27.3 42.8 28.3 41.9 28.7C41 29.1 39.9 28.7 39.5 27.8C39.4 27.6 39.2 27.2 39 26.9L36.6 20.8C36.2 19.8 35.6 18.9 34.7 18.3C34.3 18 33.7 17.6 33.3 17.8C32.9 18 32.9 18.7 32.9 19.2C32.9 20.3 33.3 21.3 33.9 22.2L37.6 27.7C37.8 28.1 38 28.4 38.1 28.6C38.5 29.5 38.3 30.5 37.5 31.1C36.7 31.7 35.6 31.5 34.9 30.8C34.2 30 32.9 28.4 32 27.2L20.9 13.8C19.8 12.3 18.5 11 17.1 10C16.6 9.6 14 7.7 13.4 8.2C12.9 8.7 14.5 11.5 14.8 12.1C15.6 13.6 16.7 15.1 18.1 16.3ZM3.6 32.9C6.5 34.8 12.3 36.5 15.7 37.5C18.1 38.2 20.5 38.9 22.8 39.7C24.2 40.1 26.3 40.8 27.2 41.1C28.1 41.4 28.6 42.4 28.4 43.4C28.2 44.4 27.2 45 26.3 44.9C26 44.9 25.7 44.8 25.3 44.8L18.9 43.3C17.8 43.1 16.7 43 15.7 43.5C15.2 43.7 14.6 43.9 14.5 44.4C14.4 44.9 15 45.3 15.4 45.6C16.3 46.2 17.4 46.5 18.5 46.5C22.1 46.5 25.7 46.6 29.4 46.6C29.5 45.7 29.6 44.8 29.9 43.8C30.3 42.2 30.8 40.8 31.6 39.3C32 38.5 32.5 37.7 33.1 36.9C30.4 34.5 27.6 32.2 24.9 29.8C24.1 29.1 23.1 28.6 22 28.5C21.5 28.5 20.8 28.4 20.5 28.7C20.2 29.1 20.6 29.7 20.8 30.2C21.3 31.2 22.1 31.9 23.1 32.4L28.9 35.5C29.2 35.7 29.6 35.9 29.8 36.1C30.6 36.7 30.9 37.7 30.4 38.6C29.9 39.5 28.9 39.9 28 39.5C27.1 39.2 25.1 38.3 23.8 37.7C21.5 36.7 19.3 35.6 17 34.6C13.8 33.1 8.3 30.6 4.9 30.1C4.3 30 1.1 29.5 0.800001 30.2C0.400001 30.8 3.1 32.6 3.6 32.9ZM44.2 45.9H44.3L45 45.5L45.1 45.4V45.3C44.6 44.5 43.9 43.9 43.1 43.5C42.3 43 41.3 42.7 40.3 42.6C39.4 42.5 38.3 42.6 37.4 42.9C37.1 43 36.7 43.1 36.4 43.2C36.3 43.2 36.1 43.3 36 43.3L34.9 44L34.8 44.1V44.2L35.9 45.5H36L37 44.9C37.1 44.8 37.3 44.8 37.4 44.7C37.6 44.6 37.8 44.5 38.1 44.4C38.2 44.3 38.4 44.3 38.6 44.3C38.5 44.5 38.4 44.8 38.4 45.1C38.4 46 39.1 46.7 40 46.7C40.9 46.7 41.6 46 41.6 45.1C41.6 44.7 41.4 44.4 41.2 44.1C41.6 44.2 42.1 44.3 42.5 44.5C43.1 44.8 43.7 45.3 44.2 45.9ZM67.7 13.2C68.1 13.4 68.5 13.3 69 12.7C70.5 10.6 72.6 8.2 72.9 6.7C73 6.2 73.2 4.3 72.5 4C71.9 3.7 70.4 4.9 70.1 5.2C69 6.4 68.2 9.5 67.4 11.9C67.2 12.6 67.2 12.9 67.7 13.2ZM83.3 25C83.6 25.4 84.3 25.4 84.8 25C85.3 24.7 85.8 24.4 86.2 24.2C87.5 23.5 88.7 22.9 90 22.2C90.7 21.8 91.4 21.5 92.1 21.1C93 20.6 93.8 19.9 94.4 19.1C94.6 18.8 95.7 17.2 95.3 16.6C94.9 16 93 16.5 92.6 16.6C91.6 16.8 90.7 17.3 89.9 18.1C89.3 18.6 88.7 19.1 88.1 19.7C87 20.6 86 21.6 84.9 22.5C84.5 22.8 84.1 23.2 83.7 23.6C83.2 23.9 83 24.6 83.3 25ZM60.8 44.7C60.9 44.8 61.1 44.8 61.2 44.9L62.2 45.5H62.3L63.4 44.2V44.1C63.4 44.1 63.4 44 63.3 44L62.1 43.4C62 43.4 61.9 43.3 61.7 43.3C61.4 43.2 61.1 43.1 60.7 43C59.7 42.7 58.7 42.6 57.8 42.7C56.8 42.8 55.9 43.1 55 43.6C54.2 44.1 53.5 44.7 53 45.4V45.5C53 45.5 53 45.6 53.1 45.6L53.8 46H53.9C54.4 45.4 55 45 55.6 44.6C56 44.4 56.5 44.3 56.9 44.2C56.7 44.5 56.5 44.8 56.5 45.2C56.5 46.1 57.2 46.8 58.1 46.8C59 46.8 60 45.9 60 45C60 44.7 59.9 44.4 59.8 44.2C60 44.2 60.1 44.3 60.3 44.3C60.4 44.5 60.6 44.6 60.8 44.7ZM81.4 34.6C79.1 35.6 76.9 36.7 74.6 37.7C73.3 38.3 71.3 39.2 70.4 39.5C69.5 39.8 68.4 39.4 68 38.6C67.5 37.7 67.8 36.6 68.6 36.1C68.8 35.9 69.1 35.7 69.5 35.5L75.3 32.4C76.3 31.9 77.1 31.1 77.6 30.2C77.8 29.7 78.2 29.1 77.9 28.8C77.6 28.4 77 28.5 76.4 28.6C75.3 28.7 74.3 29.2 73.5 29.9C70.8 32.3 68 34.6 65.3 37C65.9 37.8 66.3 38.6 66.8 39.4C67.5 40.8 68.1 42.3 68.5 43.9C68.7 44.9 68.9 45.7 69 46.7C72.6 46.7 76.2 46.6 79.8 46.6C80.9 46.6 82 46.3 82.9 45.7C83.3 45.4 83.9 45 83.8 44.5C83.7 44 83.1 43.8 82.6 43.6C81.6 43.2 80.5 43.2 79.4 43.4L73 44.7C72.6 44.8 72.2 44.8 72 44.8C71 44.9 70.1 44.3 69.9 43.3C69.7 42.3 70.2 41.3 71.1 41C72 40.6 74.1 40 75.5 39.6C77.9 38.9 80.3 38.2 82.6 37.4C86 36.4 91.8 34.7 94.7 32.8C95.2 32.5 97.9 30.7 97.7 30C97.4 29.3 94.2 29.8 93.6 29.9C90.1 30.6 84.6 33.1 81.4 34.6ZM9.2 44.6C10 44.6 10.3 44.4 10.4 43.9C10.5 43.4 10.2 43.1 9.5 42.9C7 42.2 4 41.1 2.4 41.4C2 41.4 0.100001 41.9 1.30152e-06 42.6C-0.0999987 43.3 1.6 44.2 2 44.4C3.4 44.9 6.6 44.6 9.2 44.6Z" fill="white"/>
<path d="M60.4 32.2C61.2 32.8 62 33.4 62.7 34L80.1 16.3C81.4 15 82.6 13.6 83.4 12C83.7 11.4 85.3 8.6 84.8 8.1C84.3 7.6 81.6 9.5 81.1 9.9C79.7 10.9 78.4 12.2 77.3 13.7L66.7 27.1C65.8 28.3 64.5 30 63.8 30.7C63.1 31.4 62.1 31.6 61.2 31C60.4 30.4 60.1 29.4 60.6 28.5C60.7 28.3 60.9 27.9 61.1 27.6L64.8 22.1C65.4 21.2 65.8 20.2 65.8 19.1C65.8 18.6 65.8 17.9 65.4 17.7C65 17.5 64.4 17.9 64 18.2C63.1 18.8 62.5 19.7 62.1 20.7L59.7 26.8C59.5 27.2 59.4 27.5 59.2 27.7C58.7 28.6 57.7 29 56.8 28.6C55.9 28.3 55.4 27.3 55.6 26.3C55.8 25.3 56.5 23.3 56.9 21.9C57.7 19.5 58.4 17.2 59.2 14.8C59.6 13.5 60 12.2 60.5 10.8C61.1 9.1 61.4 7.2 61.5 5.5C61.5 4.9 61.6 1.6 60.9 1.4C60.2 1.2 58.8 4.1 58.5 4.7C57.7 6.3 57.2 8 56.9 9.9C56.7 11.3 56.4 12.6 56.2 14C55.3 19 54.5 24 53.6 29C54.6 29.2 55.5 29.5 56.4 29.8C57.7 30.5 59.1 31.3 60.4 32.2ZM50.2 52.8L50.3 53.4C50.2 53.5 49.8 54 49.1 54C48.4 54 48 53.6 47.9 53.4L48 52.8C48.3 51 48.6 49.2 48.5 47.4C48.4 45.4 48 42.9 46.6 41C45.9 40.1 45.3 39.4 44 38.8C43.1 38.3 42 38.1 40.8 38H40.7C38.6 38 35.6 39.4 33.8 40.7C33.8 40.7 33.7 40.8 33.8 40.8L34.2 41.4H34.4C36 40.3 38.9 39.2 40.8 39.2H41.1C42 39.3 42.9 39.5 43.8 40C44.4 40.4 45.3 41 45.9 41.8C46.8 43.1 47.3 44.8 47.4 47.2C47.4 48.7 47.1 50 46.8 51.5C46.7 52 46.6 52.4 46.5 52.9L46.4 53.4V53.5C46.4 53.5 47.4 55.2 49.4 55.2C51.4 55.2 52.4 53.5 52.4 53.5V53.4L52.3 52.9C52.2 52.4 52.1 52 52 51.5C51.7 50.1 51.4 48.7 51.4 47.2C51.5 44.8 52 43 52.9 41.8C53.4 41 54.4 40.4 55 40C55.8 39.5 56.7 39.3 57.7 39.2H58C59.9 39.2 62.8 40.3 64.4 41.4H64.6L65 40.8V40.7C63.2 39.4 60.2 38 58.1 38H58C56.8 38 55.7 38.3 54.8 38.8C53.5 39.5 52.8 40.1 52.2 41C50.8 42.9 50.4 45.4 50.3 47.4C49.6 49.2 49.9 51 50.2 52.8ZM49.1 10.5C49.6 10.5 49.8 10.2 50 9.4C50.4 6.9 51.1 3.7 50.7 2.2C50.6 1.8 49.9 0 49.2 0C48.5 0 47.8 1.8 47.7 2.2C47.3 3.7 48 6.9 48.4 9.4C48.4 10.2 48.6 10.5 49.1 10.5ZM61.5 92C61 90.7 60.5 89.3 60 88L59.4 86.5C59.2 85.8 58.7 85.4 58.2 85.5C57.7 85.6 57.5 86.3 57.6 86.9C57.7 87.4 57.8 88 57.8 88.5C58 89.9 58.1 91.3 58.3 92.7L58.6 95.1C58.7 96.1 59.1 97.2 59.6 98C59.8 98.3 60.9 99.9 61.6 99.7C62.3 99.5 62.5 97.6 62.6 97.2C62.7 96.2 62.6 95.1 62.2 94.1C62 93.5 61.7 92.8 61.5 92Z" fill="white"/>
<path d="M61.2 66.1C62 65.5 63.1 65.7 63.8 66.4C64 66.6 64.2 66.9 64.5 67.2L68.3 72.6C68.9 73.5 69.8 74.2 70.8 74.6C71.3 74.8 71.9 75 72.3 74.7C72.6 74.4 72.5 73.7 72.4 73.2C72.2 72.1 71.5 71.2 70.7 70.5L69.3 69.3C67.1 67.3 64.9 65.3 62.6 63.2C61.9 63.8 61.2 64.4 60.4 64.9C59.1 65.8 57.7 66.6 56.1 67.1C54.6 67.7 53.1 68 51.4 68.3C50.6 68.4 49.8 68.4 49 68.4H48.5L47.5 81.7C47.3 83.5 47.1 85.4 47.4 87.1C47.5 87.7 48.2 89.4 48.9 89.4C49.6 89.4 50.3 87.8 50.4 87.1C50.8 85.4 50.5 83.6 50.3 81.7L49.7 71.6C49.6 70.6 50.4 69.8 51.4 69.7C52.4 69.6 53.3 70.2 53.5 71.2C53.6 71.5 53.6 71.8 53.7 72.2L54.6 78.7C54.7 79.8 55.1 80.8 55.9 81.6C56.2 82 56.7 82.5 57.2 82.4C57.7 82.3 57.8 81.6 57.9 81.1C58.2 80.1 58 79 57.7 77.9L55.4 71.7C55.3 71.3 55.2 71 55.1 70.7C54.9 69.8 55.4 68.8 56.3 68.4C57.2 68 58.3 68.4 58.7 69.3C59.2 70.2 60.1 72.1 60.7 73.5C61.7 75.8 62.7 78 63.7 80.3C64.3 81.6 64.8 82.8 65.4 84.1C66.1 85.8 67.5 88.2 68.6 89.5C69 90 71.1 92.5 71.7 92.2C72.3 91.9 71.5 88.7 71.3 88.1C71.2 86.5 70 84 69 82.5C68.3 81.3 67.5 80.1 66.8 78.9L62.9 72.6C62.1 71.3 61 69.5 60.6 68.6C60.1 67.7 60.4 66.7 61.2 66.1ZM92.9 63.5C91.6 62.6 88.4 62.1 85.9 61.6C85.1 61.4 84.8 61.6 84.6 62C84.4 62.5 84.6 62.8 85.3 63.2C87.5 64.4 90.2 66.2 91.8 66.4C92.2 66.4 94.1 66.4 94.4 65.7C94.6 65 93.2 63.7 92.9 63.5ZM75.4 76.9C74.8 76.4 74.4 76.3 74.1 76.7C73.7 77 73.7 77.4 74.2 78.1C75.6 80.2 77.1 83.1 78.5 83.9C78.8 84.1 80.6 85 81.1 84.5C81.6 84 81 82.2 80.8 81.9C80 80.5 77.4 78.6 75.4 76.9ZM95.9 41.3C94.3 41.1 91.3 42.2 88.8 42.8C88.1 43 87.8 43.3 87.9 43.8C88 44.3 88.3 44.5 89.1 44.5C91.6 44.6 94.9 44.9 96.3 44.3C96.6 44.2 98.4 43.2 98.3 42.5C98.1 41.9 96.3 41.4 95.9 41.3ZM13.6 62C13.4 61.5 13 61.4 12.3 61.6C9.8 62.2 6.6 62.6 5.4 63.5C5.1 63.7 3.7 65 3.9 65.7C4.1 66.4 6.1 66.4 6.5 66.4C8.1 66.2 10.8 64.4 13 63.2C13.6 62.8 13.8 62.5 13.6 62Z" fill="white"/>
<path d="M93.6 52.4C92 51.8 90.1 51.5 88.3 51.4C86.9 51.3 85.5 51.3 84.1 51.2C79 51 73.9 50.7 68.8 50.4C68.7 51.4 68.5 52.3 68.3 53.3C67.9 54.9 67.4 56.4 66.6 57.8C66.1 58.7 65.6 59.5 65 60.3C69 63.5 73 66.6 76.9 69.8C78 70.7 79.1 71.5 80.2 72.4C81.6 73.6 83.2 74.5 84.8 75.2C85.4 75.4 88.4 76.7 88.8 76.1C89.2 75.5 87 73.1 86.5 72.7C85.3 71.4 83.8 70.3 82.2 69.4L78.6 67.3C76.5 66 74.3 64.8 72.2 63.5C70.9 62.7 69.1 61.7 68.3 61.1C67.5 60.5 67.2 59.5 67.7 58.6C68.2 57.7 69.2 57.3 70.1 57.7C70.4 57.8 70.7 57.9 71.1 58.1L77 61.1C78 61.6 79.1 61.9 80.1 61.7C80.6 61.6 81.3 61.6 81.5 61.1C81.7 60.7 81.2 60.2 80.9 59.8C80.2 59 79.2 58.5 78.1 58.2L72 56.3C71.6 56.2 71.3 56.1 71 56C70.1 55.7 69.6 54.7 69.8 53.7C70 52.7 71 52.1 71.9 52.2C72.9 52.3 75 52.7 76.5 53C78.9 53.5 81.4 53.9 83.8 54.4C85.2 54.7 86.5 54.9 87.9 55.2C89.7 55.6 91.6 55.7 93.3 55.5C93.9 55.4 97.2 55.1 97.3 54.4C97.3 53.7 94.3 52.6 93.6 52.4ZM40 85.5C39.5 85.4 39 85.8 38.8 86.5C38.6 87 38.4 87.6 38.2 88C37.7 89.3 37.2 90.7 36.7 92C36.4 92.7 36.1 93.5 35.9 94.2C35.5 95.2 35.4 96.2 35.5 97.3C35.5 97.7 35.8 99.6 36.5 99.8C37.2 100 38.3 98.4 38.5 98.1C39.1 97.2 39.5 96.3 39.5 95.2L39.8 92.8C40 91.4 40.1 90 40.3 88.6C40.4 88.1 40.4 87.5 40.5 87C40.7 86.3 40.5 85.6 40 85.5ZM50.7 100.8C50.5 99.4 50.4 98 50.2 96.6C50.1 96.1 50.1 95.5 50 95C50 94.3 49.6 93.7 49.1 93.7C48.6 93.7 48.2 94.3 48.2 95C48.2 95.5 48.1 96.1 48 96.6C47.8 98 47.7 99.4 47.5 100.8L47.2 103.2C47 104.2 47.2 105.3 47.5 106.3C47.6 106.7 48.3 108.5 49 108.5C49.7 108.5 50.4 106.7 50.5 106.3C50.9 105.3 51 104.3 50.8 103.2C50.9 102.4 50.8 101.6 50.7 100.8ZM21.1 69.8C25.1 66.6 29.1 63.4 33 60.3C32.4 59.5 31.9 58.7 31.5 57.8C30.8 56.4 30.2 54.9 29.8 53.3C29.6 52.3 29.4 51.4 29.3 50.4C24.2 50.7 19.1 51 14 51.2C12.6 51.3 11.2 51.3 9.8 51.4C8 51.5 6.1 51.8 4.5 52.4C3.9 52.6 0.799999 53.7 0.899999 54.4C0.999999 55.1 4.2 55.4 4.9 55.5C6.6 55.7 8.5 55.6 10.3 55.2C11.7 54.9 13 54.7 14.4 54.4C16.8 53.9 19.3 53.5 21.7 53C23.2 52.7 25.2 52.3 26.3 52.2C27.3 52.1 28.2 52.7 28.4 53.7C28.6 54.7 28.1 55.7 27.2 56C27 56.1 26.6 56.2 26.2 56.3L19.9 58C18.8 58.3 17.8 58.8 17.1 59.6C16.8 60 16.3 60.5 16.5 60.9C16.7 61.3 17.3 61.4 17.9 61.5C19 61.6 20.1 61.4 21 60.9L26.9 57.9C27.3 57.7 27.6 57.6 27.9 57.5C28.8 57.2 29.9 57.6 30.3 58.4C30.8 59.3 30.5 60.4 29.7 60.9C28.9 61.5 27 62.6 25.8 63.3C23.7 64.6 21.5 65.8 19.4 67.1L15.8 69.2C14.2 70.1 12.7 71.3 11.5 72.5C11.1 73 8.8 75.3 9.2 75.9C9.6 76.5 12.6 75.3 13.2 75C14.8 74.3 16.4 73.4 17.8 72.2C18.9 71.5 20 70.7 21.1 69.8ZM22.8 76.9C20.9 78.5 18.2 80.4 17.5 81.8C17.3 82.1 16.7 84 17.2 84.4C17.7 84.9 19.5 84 19.8 83.8C21.1 82.9 22.7 80.1 24.1 78C24.5 77.4 24.5 77 24.2 76.6C23.8 76.4 23.4 76.4 22.8 76.9ZM37.8 64.9C37 64.4 36.3 63.8 35.6 63.2C32.9 65.6 30.3 68.1 27.6 70.5C26.8 71.2 26.2 72.1 25.9 73.2C25.8 73.7 25.6 74.4 26 74.7C26.3 75 27 74.8 27.5 74.6C28.5 74.2 29.3 73.5 30 72.6L33.8 67.2C34.1 66.9 34.3 66.6 34.5 66.4C35.2 65.7 36.2 65.5 37.1 66.1C37.9 66.7 38.2 67.7 37.7 68.6C37.2 69.5 36.1 71.3 35.4 72.6L31.5 78.9C30.8 80.1 30 81.3 29.3 82.5C28.3 84.1 27.1 86.6 26.7 88.2C26.5 88.8 25.7 91.9 26.3 92.3C26.9 92.6 29 90.1 29.4 89.6C30.5 88.3 31.9 85.9 32.6 84.2C33.2 82.9 33.7 81.7 34.3 80.4C35.3 78.1 36.3 75.9 37.3 73.6C37.9 72.2 38.8 70.3 39.3 69.4C39.8 68.5 40.8 68.1 41.7 68.5C42.6 68.8 43.1 69.8 42.9 70.8C42.8 71.1 42.7 71.4 42.6 71.8L40.3 78C39.9 79 39.8 80.1 40.1 81.2C40.2 81.7 40.4 82.4 40.8 82.5C41.3 82.6 41.7 82.1 42.1 81.7C42.8 80.9 43.2 79.9 43.4 78.8C43.9 75.2 44.4 71.6 44.8 68C43.9 67.8 43 67.5 42.1 67.2C40.5 66.6 39.1 65.8 37.8 64.9ZM51.6 62.1C51.6 62.1 51.7 62 51.6 62L50.7 60.9C50.7 60.8 50.6 60.8 50.6 60.9C50.3 61.1 49.6 61.6 49.2 61.6C48.8 61.6 48.1 61.2 47.8 61H47.7L46.6 62V62.1C46.7 62.2 47.9 63.1 49 63.1C50.3 63.2 51.4 62.2 51.6 62.1ZM149.3 61.8V34.9H145.5L134.2 50.8L120 34.9H115C115.7 35.4 116.4 36.1 117.1 37C117.8 37.9 118.2 38.7 118.2 39.3V61.8H119.2V39.7L133 54.3L145.7 36.4V61.8H149.3ZM169.5 52.9L169.4 55.4V58.4C169.5 59.8 169.9 60.8 170.7 61.2C171.4 61.6 172.9 61.8 175 61.8C173.4 61.5 172.7 59.5 172.7 55.9V49.8C172.7 44.2 163.8 40.3 157.9 42.7L154.7 46.6L160.5 44.5C163.3 43.5 165.6 43.1 167.3 43.6C169 44.1 169.7 45.5 169.7 47.7C169.7 48.4 168.1 49.1 166.4 49.6C164.1 50.3 161.8 50.8 161.8 50.8C158 51.6 155.5 53.1 154.3 55.2C153.4 56.8 153.4 58.3 154.3 59.8C155.3 61.3 157 62.1 159.2 62.1C160.6 62.1 162.1 61.6 163.5 60.7C165.9 59.1 167.9 56.5 169.6 53L169.5 52.9ZM161.6 59.4C159.7 60 158.1 59.3 156.8 57.3C155.5 55 156.8 53.7 158.3 52.8C159 52.4 160.1 52.1 160.7 51.9C161.3 51.7 162.1 51.6 162.2 51.6C164.7 51 166.7 50.4 167.7 50C168.6 49.6 169.3 49.2 169.4 49L169.5 48.9V49.8C169.5 51.5 168.6 53.3 166.9 55.4C165.3 57.4 163.5 58.8 161.6 59.4ZM191.6 56C190.7 57.4 189.6 58.7 188.4 59.6C186.5 61 184.8 61.5 183.3 61.1C181.9 60.8 181.6 59.4 181.6 58.1L181.7 44.7H187.8L189.7 42.4H181.7V37.7L176 44.7H178.5V57C178.5 59.5 179.9 61.4 182 62C183 62.3 184.2 62.3 185.4 62.1C187.8 61.6 190.5 59.4 192.3 56.2L191.6 56ZM209.7 49.1V61.8H212.8V48.4C212.8 46.6 212.2 45.1 211.1 43.9C209.998 42.7904 208.553 42.0856 207 41.9C205.4 41.7 203.7 42 201.9 42.7C200.1 43.4 198.5 44.6 197.2 46.1L197.1 32L194 34.9V61.8H197.2V47.4C198.8 45.5 200.6 44.3 202.6 43.8C204.4 43.3 206.3 43.1 207.6 44.1C209 45.1 209.7 46.8 209.7 49.1ZM218.3 35.1C217.5 35.9 217.5 37.2 218.3 38C219.1 38.8 220.4 38.8 221.2 38C222 37.2 222 35.9 221.2 35.1C220.4 34.4 219.1 34.4 218.3 35.1ZM221.3 42.4H218.1V59.5L217.9 61.8H221.4L221.3 59.5V42.4ZM242.7 55.7C242.5 53.4 240.3 51.8 237.5 50.9C236.1 50.5 234.7 50 233.3 49.6C230.5 48.8 228.3 47.6 228.1 45.7C228 44.9 228.5 44.1 229.5 43.7C230.5 43.3 231.1 43.1 232.2 42.9C235.3 42.6 237.8 42.9 239.2 44.3C240.6 45.7 241.3 47.4 241.6 49.1H241.8V43.3C237.5 41.7 233.8 41.4 230.7 42.3C227.6 43.2 226.1 45.1 226.4 48C226.6 50.2 228.8 51.8 231.6 52.8C233 53.3 234.4 53.8 235.7 54.2C238.5 55.1 240.5 56.3 240.6 57.6C240.6 57.9 240.6 58.2 240.4 58.6C240 60 238.8 60.9 236.9 61.4C234.8 61.9 232.7 61.6 230.8 60.4C228.3 59 227.1 57 227.1 53.8L226.9 53.7L227 61.6C228.9 61.9 230.3 62 231.3 62.1C232.3 62.2 233.4 62.2 234.9 62.3C237.7 62.3 239.6 61.6 241 60.4C241.4 60 241.9 59.4 242.3 58.4C242.6 57.6 242.8 56.6 242.7 55.7ZM183.6 74.3H186.9V75H183.6V74.3ZM120.4 72.1C121.6 72.1 122.2 72.5 122.7 73.3L123.6 72.7C122.9 71.8 121.9 71.3 120.5 71.3C118.8 71.3 117.8 72.2 117.8 73.2C117.8 74.5 119.1 74.8 120.4 75C121.5 75.2 122.6 75.4 122.6 76.2C122.6 76.9 122 77.4 120.9 77.4C119.8 77.4 119 77 118.4 76.2L117.6 76.8C118.3 77.7 119.4 78.2 120.9 78.2C122.6 78.2 123.6 77.4 123.6 76.2C123.6 74.8 122.2 74.6 121 74.4C119.8 74.2 118.9 74.1 118.9 73.2C118.7 72.6 119.3 72.1 120.4 72.1ZM124.5 72.1H127V78.1H128V72.1H130.5V71.3H124.5V72.1ZM131.6 76.8C131.1 76.8 130.8 77.1 130.8 77.5C130.8 77.9 131.1 78.2 131.6 78.2C132.1 78.2 132.4 77.9 132.4 77.5C132.3 77.1 132 76.8 131.6 76.8ZM141 76.7L140.7 77.3L140.5 76.7L138.3 71.3H136.9V78.1H137.8V72L138.2 73.1L140.3 78.1H141.1L143.3 73.1L143.6 72V78.1H144.6V71.3H143.2L141 76.7ZM149.8 71.3C147.5 71.3 146.2 72.9 146.2 74.8C146.2 76.6 147.3 78.3 149.7 78.3C152.1 78.3 153.3 76.7 153.3 74.8C153.4 72.8 152.2 71.3 149.8 71.3ZM149.8 77.4C148 77.4 147.3 76.2 147.3 74.7C147.3 73.3 148.2 72 149.8 72C151.5 72 152.3 73.2 152.3 74.7C152.3 76.1 151.5 77.4 149.8 77.4ZM160.3 75.4C160.1 75.2 159.8 75.2 159.4 75.1C160 75 160.4 74.8 160.8 74.5C161.2 74.2 161.4 73.8 161.4 73.2C161.4 72.1 160.6 71.3 158.7 71.3H155.5V78H156.5V75.3H158.1C159.5 75.3 159.8 75.5 160.2 76.8L160.5 78H161.5L161.2 76.8C160.9 76.1 160.7 75.6 160.3 75.4ZM156.4 74.8V72.2H158.4C159.8 72.2 160.3 72.7 160.3 73.5C160.3 74.4 159.5 74.8 158.3 74.8H156.4ZM163.4 71.3H164.4V78H163.4V71.3ZM166.3 72.1H168.8V78.1H169.8V72.1H172.3V71.3H166.3V72.1ZM175.6 76.5L179.4 72.1V71.3H173.9V72.1H178.4L177.8 72.8L173.8 77.3V78.1H179.5V77.3H174.8L175.6 76.5ZM192.6 75H196.1V74.3H192.6V72.1H197V71.3H191.6V78.1H197V77.3H192.6V75ZM201.3 72.1C202.5 72.1 203.1 72.5 203.6 73.3L204.5 72.7C203.8 71.8 202.8 71.3 201.4 71.3C199.7 71.3 198.7 72.2 198.7 73.2C198.7 74.5 200 74.8 201.3 75C202.4 75.2 203.5 75.4 203.5 76.2C203.5 76.9 202.9 77.4 201.8 77.4C200.7 77.4 199.9 77 199.3 76.2L198.5 76.8C199.2 77.7 200.3 78.2 201.8 78.2C203.5 78.2 204.5 77.4 204.5 76.2C204.5 74.8 203.1 74.6 201.8 74.4C200.6 74.2 199.7 74.1 199.7 73.2C199.7 72.6 200.2 72.1 201.3 72.1ZM205.9 72.1H208.4V78.1H209.4V72.1H211.8V71.3H205.9V72.1ZM213 76.8C212.5 76.8 212.2 77.1 212.2 77.5C212.2 77.9 212.5 78.2 213 78.2C213.5 78.2 213.8 77.9 213.8 77.5C213.7 77.1 213.4 76.8 213 76.8ZM217.7 72.8L217.6 73.7H217.7C218.5 73.7 219.2 73.3 219.5 72.6V78.1H220.5V71.4H219.6C219.5 72.4 218.8 72.8 217.7 72.8ZM225.5 71.3C223.8 71.3 222.8 72.4 222.8 73.7C222.8 75 223.8 75.8 225.2 75.8C226.2 75.8 227.1 75.4 227.5 74.5V74.6C227.5 76.5 226.6 77.4 225.3 77.4C224.5 77.4 223.9 77.2 223.5 76.7L222.8 77.3C223.3 77.9 224.1 78.2 225.3 78.2C227.1 78.2 228.5 76.9 228.5 74.6C228.6 72.7 227.6 71.3 225.5 71.3ZM225.5 75.1C224.5 75.1 223.8 74.6 223.8 73.6C223.8 72.7 224.4 72 225.6 72C226.7 72 227.4 72.6 227.6 73.7C227.2 74.7 226.4 75.1 225.5 75.1ZM233.3 73.6C232.3 73.6 231.4 74.1 231 75V74.8C231 72.9 232 72 233.3 72C234.1 72 234.6 72.2 235.1 72.7L235.8 72.1C235.3 71.5 234.5 71.2 233.4 71.2C231.6 71.2 230.1 72.4 230.1 74.8C230.1 76.6 231.1 78.1 233.1 78.1C234.8 78.1 235.8 77 235.8 75.7C235.8 74.5 234.8 73.6 233.3 73.6ZM233 77.4C232 77.4 231.3 76.8 231 75.8C231.3 74.8 232.2 74.4 233.1 74.4C234.1 74.4 234.8 74.9 234.8 75.9C234.8 76.7 234.2 77.4 233 77.4ZM237 72.1H241.1L237.9 78.1H239L242 72.1V71.3H237V72.1Z" fill="white"/>
</g>
<defs>
<clipPath id="clip0_7_22">
<rect width="243" height="108.5" fill="white"/>
</clipPath>
</defs>
</svg>
