<svg version="1.1" id="Layer_1" xmlns="http://www.w3.org/2000/svg" x="0" y="0" width="243" height="108.5" viewBox="0 0 243 108.5" xml:space="preserve"><style type="text/css">.st0{fill:#000}</style><path class="st0" d="M29.3 12.6c.5.6.8.8 1.3.5.4-.2.5-.6.3-1.3-.8-2.4-1.7-5.5-2.7-6.7-.3-.3-1.7-1.5-2.4-1.2-.6.3-.4 2.3-.3 2.6.2 1.6 2.3 4.1 3.8 6.1zm19.6 47c1.6 0 3.3-.2 4.9-.6.1 0 .1-.1.1-.1l-.3-1.1v-.1h-.1c-.4.1-.8.1-1.1.2-.8-.2-1.9-.5-2.3-.5-.5 0-.9.4-1 .6-.1-.2-.5-.5-1-.5-.4 0-1.3.3-2.1.6-.5-.1-.9-.2-1.2-.2h-.1v.1l-.3 1.1c0 .1 0 .1.1.1.8.1 2.4.4 4.4.4zM6.1 21.1c.7.4 1.4.7 2.1 1.1 1.3.7 2.5 1.3 3.8 2 .4.2 1 .5 1.4.8.6.4 1.3.4 1.5 0 .3-.4 0-1-.5-1.4-.4-.3-.9-.7-1.2-1.1-1.1-.9-2.1-1.9-3.2-2.8-.6-.5-1.2-1-1.8-1.6-.8-.7-1.7-1.2-2.7-1.5-.4-.1-2.2-.6-2.7 0-.4.6.7 2.2.9 2.5.6.8 1.4 1.6 2.4 2z"/><path class="st0" d="M18.1 16.3L35.5 34c.7-.7 1.5-1.3 2.3-1.9 1.3-.9 2.7-1.7 4.3-2.2 1.5-.6 3-.9 4.7-1.2.8-.1 1.6-.1 2.4-.1h.4l1.2-10.8c.1-1.1 0-2.2-.5-3.1-.2-.4-.6-1.1-1-1.1s-.8.6-1 1.1c-.5 1-.7 2.1-.5 3.1l.7 6.6v1.1c0 1-.7 1.8-1.7 1.9-1 .1-1.9-.5-2.1-1.5-.2-1-.6-3.1-.9-4.5-.4-2.4-.9-4.9-1.3-7.3-.2-1.4-.5-2.7-.7-4.1-.3-1.8-.8-3.6-1.6-5.2-.3-.6-1.7-3.5-2.4-3.3-.7.2-.6 3.4-.6 4.1.1 1.7.4 3.6 1 5.3.4 1.3.8 2.7 1.3 4 .8 2.4 1.5 4.7 2.3 7.1.5 1.4 1.1 3.4 1.3 4.4.2.9-.3 1.9-1.2 2.3-.9.4-2 0-2.4-.9-.1-.2-.3-.6-.5-.9l-2.4-6.1c-.4-1-1-1.9-1.9-2.5-.4-.3-1-.7-1.4-.5-.4.2-.4.9-.4 1.4 0 1.1.4 2.1 1 3l3.7 5.5c.2.4.4.7.5.9.4.9.2 1.9-.6 2.5-.8.6-1.9.4-2.6-.3-.7-.8-2-2.4-2.9-3.6L20.9 13.8c-1.1-1.5-2.4-2.8-3.8-3.8-.5-.4-3.1-2.3-3.7-1.8-.5.5 1.1 3.3 1.4 3.9.8 1.5 1.9 3 3.3 4.2zM3.6 32.9c2.9 1.9 8.7 3.6 12.1 4.6 2.4.7 4.8 1.4 7.1 2.2 1.4.4 3.5 1.1 4.4 1.4.9.3 1.4 1.3 1.2 2.3-.2 1-1.2 1.6-2.1 1.5-.3 0-.6-.1-1-.1l-6.4-1.5c-1.1-.2-2.2-.3-3.2.2-.5.2-1.1.4-1.2.9-.1.5.5.9.9 1.2.9.6 2 .9 3.1.9 3.6 0 7.2.1 10.9.1.1-.9.2-1.8.5-2.8.4-1.6.9-3 1.7-4.5.4-.8.9-1.6 1.5-2.4-2.7-2.4-5.5-4.7-8.2-7.1-.8-.7-1.8-1.2-2.9-1.3-.5 0-1.2-.1-1.5.2-.3.4.1 1 .3 1.5.5 1 1.3 1.7 2.3 2.2l5.8 3.1c.3.2.7.4.9.6.8.6 1.1 1.6.6 2.5-.5.9-1.5 1.3-2.4.9-.9-.3-2.9-1.2-4.2-1.8-2.3-1-4.5-2.1-6.8-3.1-3.2-1.5-8.7-4-12.1-4.5-.6-.1-3.8-.6-4.1.1-.4.6 2.3 2.4 2.8 2.7zm40.6 13s.1 0 0 0h.1l.7-.4.1-.1v-.1c-.5-.8-1.2-1.4-2-1.8-.8-.5-1.8-.8-2.8-.9-.9-.1-2 0-2.9.3-.3.1-.7.2-1 .3-.1 0-.3.1-.4.1l-1.1.7-.1.1v.1l1.1 1.3h.1l1-.6c.1-.1.3-.1.4-.2.2-.1.4-.2.7-.3.1-.1.3-.1.5-.1-.1.2-.2.5-.2.8 0 .9.7 1.6 1.6 1.6.9 0 1.6-.7 1.6-1.6 0-.4-.2-.7-.4-1 .4.1.9.2 1.3.4.6.3 1.2.8 1.7 1.4zm23.5-32.7c.4.2.8.1 1.3-.5 1.5-2.1 3.6-4.5 3.9-6 .1-.5.3-2.4-.4-2.7-.6-.3-2.1.9-2.4 1.2-1.1 1.2-1.9 4.3-2.7 6.7-.2.7-.2 1 .3 1.3zM83.3 25c.3.4 1 .4 1.5 0 .5-.3 1-.6 1.4-.8 1.3-.7 2.5-1.3 3.8-2 .7-.4 1.4-.7 2.1-1.1.9-.5 1.7-1.2 2.3-2 .2-.3 1.3-1.9.9-2.5-.4-.6-2.3-.1-2.7 0-1 .2-1.9.7-2.7 1.5-.6.5-1.2 1-1.8 1.6-1.1.9-2.1 1.9-3.2 2.8-.4.3-.8.7-1.2 1.1-.5.3-.7 1-.4 1.4zM60.8 44.7c.1.1.3.1.4.2l1 .6h.1l1.1-1.3v-.1s0-.1-.1-.1l-1.2-.6c-.1 0-.2-.1-.4-.1-.3-.1-.6-.2-1-.3-1-.3-2-.4-2.9-.3-1 .1-1.9.4-2.8.9-.8.5-1.5 1.1-2 1.8v.1s0 .1.1.1l.7.4h.1c.5-.6 1.1-1 1.7-1.4.4-.2.9-.3 1.3-.4-.2.3-.4.6-.4 1 0 .9.7 1.6 1.6 1.6S60 45.9 60 45c0-.3-.1-.6-.2-.8.2 0 .3.1.5.1.1.2.3.3.5.4zm20.6-10.1c-2.3 1-4.5 2.1-6.8 3.1-1.3.6-3.3 1.5-4.2 1.8-.9.3-2-.1-2.4-.9-.5-.9-.2-2 .6-2.5.2-.2.5-.4.9-.6l5.8-3.1c1-.5 1.8-1.3 2.3-2.2.2-.5.6-1.1.3-1.4-.3-.4-.9-.3-1.5-.2-1.1.1-2.1.6-2.9 1.3-2.7 2.4-5.5 4.7-8.2 7.1.6.8 1 1.6 1.5 2.4.7 1.4 1.3 2.9 1.7 4.5.2 1 .4 1.8.5 2.8 3.6 0 7.2-.1 10.8-.1 1.1 0 2.2-.3 3.1-.9.4-.3 1-.7.9-1.2-.1-.5-.7-.7-1.2-.9-1-.4-2.1-.4-3.2-.2L73 44.7c-.4.1-.8.1-1 .1-1 .1-1.9-.5-2.1-1.5-.2-1 .3-2 1.2-2.3.9-.4 3-1 4.4-1.4 2.4-.7 4.8-1.4 7.1-2.2 3.4-1 9.2-2.7 12.1-4.6.5-.3 3.2-2.1 3-2.8-.3-.7-3.5-.2-4.1-.1-3.5.7-9 3.2-12.2 4.7zm-72.2 10c.8 0 1.1-.2 1.2-.7.1-.5-.2-.8-.9-1-2.5-.7-5.5-1.8-7.1-1.5-.4 0-2.3.5-2.4 1.2s1.6 1.6 2 1.8c1.4.5 4.6.2 7.2.2z"/><path class="st0" d="M60.4 32.2c.8.6 1.6 1.2 2.3 1.8l17.4-17.7c1.3-1.3 2.5-2.7 3.3-4.3.3-.6 1.9-3.4 1.4-3.9s-3.2 1.4-3.7 1.8c-1.4 1-2.7 2.3-3.8 3.8L66.7 27.1c-.9 1.2-2.2 2.9-2.9 3.6-.7.7-1.7.9-2.6.3-.8-.6-1.1-1.6-.6-2.5.1-.2.3-.6.5-.9l3.7-5.5c.6-.9 1-1.9 1-3 0-.5 0-1.2-.4-1.4-.4-.2-1 .2-1.4.5-.9.6-1.5 1.5-1.9 2.5l-2.4 6.1c-.2.4-.3.7-.5.9-.5.9-1.5 1.3-2.4.9-.9-.3-1.4-1.3-1.2-2.3.2-1 .9-3 1.3-4.4.8-2.4 1.5-4.7 2.3-7.1.4-1.3.8-2.6 1.3-4 .6-1.7.9-3.6 1-5.3 0-.6.1-3.9-.6-4.1-.7-.2-2.1 2.7-2.4 3.3-.8 1.6-1.3 3.3-1.6 5.2-.2 1.4-.5 2.7-.7 4.1-.9 5-1.7 10-2.6 15 1 .2 1.9.5 2.8.8 1.3.7 2.7 1.5 4 2.4zM50.2 52.8l.1.6c-.1.1-.5.6-1.2.6s-1.1-.4-1.2-.6l.1-.6c.3-1.8.6-3.6.5-5.4-.1-2-.5-4.5-1.9-6.4-.7-.9-1.3-1.6-2.6-2.2-.9-.5-2-.7-3.2-.8h-.1c-2.1 0-5.1 1.4-6.9 2.7 0 0-.1.1 0 .1l.4.6h.2c1.6-1.1 4.5-2.2 6.4-2.2h.3c.9.1 1.8.3 2.7.8.6.4 1.5 1 2.1 1.8.9 1.3 1.4 3 1.5 5.4 0 1.5-.3 2.8-.6 4.3-.1.5-.2.9-.3 1.4l-.1.5v.1s1 1.7 3 1.7 3-1.7 3-1.7v-.1l-.1-.5c-.1-.5-.2-.9-.3-1.4-.3-1.4-.6-2.8-.6-4.3.1-2.4.6-4.2 1.5-5.4.5-.8 1.5-1.4 2.1-1.8.8-.5 1.7-.7 2.7-.8h.3c1.9 0 4.8 1.1 6.4 2.2h.2l.4-.6v-.1c-1.8-1.3-4.8-2.7-6.9-2.7H58c-1.2 0-2.3.3-3.2.8-1.3.7-2 1.3-2.6 2.2-1.4 1.9-1.8 4.4-1.9 6.4-.7 1.8-.4 3.6-.1 5.4zm-1.1-42.3c.5 0 .7-.3.9-1.1.4-2.5 1.1-5.7.7-7.2-.1-.4-.8-2.2-1.5-2.2s-1.4 1.8-1.5 2.2c-.4 1.5.3 4.7.7 7.2 0 .8.2 1.1.7 1.1zM61.5 92c-.5-1.3-1-2.7-1.5-4l-.6-1.5c-.2-.7-.7-1.1-1.2-1-.5.1-.7.8-.6 1.4.1.5.2 1.1.2 1.6.2 1.4.3 2.8.5 4.2l.3 2.4c.1 1 .5 2.1 1 2.9.2.3 1.3 1.9 2 1.7.7-.2.9-2.1 1-2.5.1-1 0-2.1-.4-3.1-.2-.6-.5-1.3-.7-2.1z"/><path class="st0" d="M61.2 66.1c.8-.6 1.9-.4 2.6.3.2.2.4.5.7.8l3.8 5.4c.6.9 1.5 1.6 2.5 2 .5.2 1.1.4 1.5.1.3-.3.2-1 .1-1.5-.2-1.1-.9-2-1.7-2.7l-1.4-1.2c-2.2-2-4.4-4-6.7-6.1-.7.6-1.4 1.2-2.2 1.7-1.3.9-2.7 1.7-4.3 2.2-1.5.6-3 .9-4.7 1.2-.8.1-1.6.1-2.4.1h-.5l-1 13.3c-.2 1.8-.4 3.7-.1 5.4.1.6.8 2.3 1.5 2.3s1.4-1.6 1.5-2.3c.4-1.7.1-3.5-.1-5.4l-.6-10.1c-.1-1 .7-1.8 1.7-1.9 1-.1 1.9.5 2.1 1.5.1.3.1.6.2 1l.9 6.5c.1 1.1.5 2.1 1.3 2.9.3.4.8.9 1.3.8.5-.1.6-.8.7-1.3.3-1 .1-2.1-.2-3.2l-2.3-6.2c-.1-.4-.2-.7-.3-1-.2-.9.3-1.9 1.2-2.3.9-.4 2 0 2.4.9.5.9 1.4 2.8 2 4.2 1 2.3 2 4.5 3 6.8.6 1.3 1.1 2.5 1.7 3.8.7 1.7 2.1 4.1 3.2 5.4.4.5 2.5 3 3.1 2.7.6-.3-.2-3.5-.4-4.1-.1-1.6-1.3-4.1-2.3-5.6-.7-1.2-1.5-2.4-2.2-3.6l-3.9-6.3c-.8-1.3-1.9-3.1-2.3-4-.5-.9-.2-1.9.6-2.5zm31.7-2.6c-1.3-.9-4.5-1.4-7-1.9-.8-.2-1.1 0-1.3.4-.2.5 0 .8.7 1.2 2.2 1.2 4.9 3 6.5 3.2.4 0 2.3 0 2.6-.7.2-.7-1.2-2-1.5-2.2zM75.4 76.9c-.6-.5-1-.6-1.3-.2-.4.3-.4.7.1 1.4 1.4 2.1 2.9 5 4.3 5.8.3.2 2.1 1.1 2.6.6.5-.5-.1-2.3-.3-2.6-.8-1.4-3.4-3.3-5.4-5zm20.5-35.6c-1.6-.2-4.6.9-7.1 1.5-.7.2-1 .5-.9 1s.4.7 1.2.7c2.5.1 5.8.4 7.2-.2.3-.1 2.1-1.1 2-1.8-.2-.6-2-1.1-2.4-1.2zM13.6 62c-.2-.5-.6-.6-1.3-.4-2.5.6-5.7 1-6.9 1.9-.3.2-1.7 1.5-1.5 2.2.2.7 2.2.7 2.6.7 1.6-.2 4.3-2 6.5-3.2.6-.4.8-.7.6-1.2z"/><path class="st0" d="M93.6 52.4c-1.6-.6-3.5-.9-5.3-1-1.4-.1-2.8-.1-4.2-.2-5.1-.2-10.2-.5-15.3-.8-.1 1-.3 1.9-.5 2.9-.4 1.6-.9 3.1-1.7 4.5-.5.9-1 1.7-1.6 2.5 4 3.2 8 6.3 11.9 9.5 1.1.9 2.2 1.7 3.3 2.6 1.4 1.2 3 2.1 4.6 2.8.6.2 3.6 1.5 4 .9.4-.6-1.8-3-2.3-3.4-1.2-1.3-2.7-2.4-4.3-3.3l-3.6-2.1c-2.1-1.3-4.3-2.5-6.4-3.8-1.3-.8-3.1-1.8-3.9-2.4-.8-.6-1.1-1.6-.6-2.5s1.5-1.3 2.4-.9c.3.1.6.2 1 .4l5.9 3c1 .5 2.1.8 3.1.6.5-.1 1.2-.1 1.4-.6.2-.4-.3-.9-.6-1.3-.7-.8-1.7-1.3-2.8-1.6L72 56.3c-.4-.1-.7-.2-1-.3-.9-.3-1.4-1.3-1.2-2.3.2-1 1.2-1.6 2.1-1.5 1 .1 3.1.5 4.6.8 2.4.5 4.9.9 7.3 1.4 1.4.3 2.7.5 4.1.8 1.8.4 3.7.5 5.4.3.6-.1 3.9-.4 4-1.1 0-.7-3-1.8-3.7-2zM40 85.5c-.5-.1-1 .3-1.2 1-.2.5-.4 1.1-.6 1.5-.5 1.3-1 2.7-1.5 4-.3.7-.6 1.5-.8 2.2-.4 1-.5 2-.4 3.1 0 .4.3 2.3 1 2.5.7.2 1.8-1.4 2-1.7.6-.9 1-1.8 1-2.9l.3-2.4c.2-1.4.3-2.8.5-4.2.1-.5.1-1.1.2-1.6.2-.7 0-1.4-.5-1.5zm10.7 15.3c-.2-1.4-.3-2.8-.5-4.2-.1-.5-.1-1.1-.2-1.6 0-.7-.4-1.3-.9-1.3s-.9.6-.9 1.3c0 .5-.1 1.1-.2 1.6-.2 1.4-.3 2.8-.5 4.2l-.3 2.4c-.2 1 0 2.1.3 3.1.1.4.8 2.2 1.5 2.2s1.4-1.8 1.5-2.2c.4-1 .5-2 .3-3.1.1-.8 0-1.6-.1-2.4zm-29.6-31c4-3.2 8-6.4 11.9-9.5-.6-.8-1.1-1.6-1.5-2.5-.7-1.4-1.3-2.9-1.7-4.5-.2-1-.4-1.9-.5-2.9-5.1.3-10.2.6-15.3.8-1.4.1-2.8.1-4.2.2-1.8.1-3.7.4-5.3 1-.6.2-3.7 1.3-3.6 2 .1.7 3.3 1 4 1.1 1.7.2 3.6.1 5.4-.3 1.4-.3 2.7-.5 4.1-.8 2.4-.5 4.9-.9 7.3-1.4 1.5-.3 3.5-.7 4.6-.8 1-.1 1.9.5 2.1 1.5.2 1-.3 2-1.2 2.3-.2.1-.6.2-1 .3L19.9 58c-1.1.3-2.1.8-2.8 1.6-.3.4-.8.9-.6 1.3s.8.5 1.4.6c1.1.1 2.2-.1 3.1-.6l5.9-3c.4-.2.7-.3 1-.4.9-.3 2 .1 2.4.9.5.9.2 2-.6 2.5-.8.6-2.7 1.7-3.9 2.4-2.1 1.3-4.3 2.5-6.4 3.8l-3.6 2.1c-1.6.9-3.1 2.1-4.3 3.3-.4.5-2.7 2.8-2.3 3.4.4.6 3.4-.6 4-.9 1.6-.7 3.2-1.6 4.6-2.8 1.1-.7 2.2-1.5 3.3-2.4zm1.7 7.1c-1.9 1.6-4.6 3.5-5.3 4.9-.2.3-.8 2.2-.3 2.6.5.5 2.3-.4 2.6-.6 1.3-.9 2.9-3.7 4.3-5.8.4-.6.4-1 .1-1.4-.4-.2-.8-.2-1.4.3zm15-12c-.8-.5-1.5-1.1-2.2-1.7-2.7 2.4-5.3 4.9-8 7.3-.8.7-1.4 1.6-1.7 2.7-.1.5-.3 1.2.1 1.5.3.3 1 .1 1.5-.1 1-.4 1.8-1.1 2.5-2l3.8-5.4c.3-.3.5-.6.7-.8.7-.7 1.7-.9 2.6-.3.8.6 1.1 1.6.6 2.5-.5.9-1.6 2.7-2.3 4l-3.9 6.3c-.7 1.2-1.5 2.4-2.2 3.6-1 1.6-2.2 4.1-2.6 5.7-.2.6-1 3.7-.4 4.1.6.3 2.7-2.2 3.1-2.7 1.1-1.3 2.5-3.7 3.2-5.4.6-1.3 1.1-2.5 1.7-3.8 1-2.3 2-4.5 3-6.8.6-1.4 1.5-3.3 2-4.2.5-.9 1.5-1.3 2.4-.9.9.3 1.4 1.3 1.2 2.3-.1.3-.2.6-.3 1L40.3 78c-.4 1-.5 2.1-.2 3.2.1.5.3 1.2.7 1.3.5.1.9-.4 1.3-.8.7-.8 1.1-1.8 1.3-2.9.5-3.6 1-7.2 1.4-10.8-.9-.2-1.8-.5-2.7-.8-1.6-.6-3-1.4-4.3-2.3zm13.8-2.8s.1-.1 0-.1l-.9-1.1c0-.1-.1-.1-.1 0-.3.2-1 .7-1.4.7-.4 0-1.1-.4-1.4-.6h-.1l-1.1 1v.1c.1.1 1.3 1 2.4 1 1.3.1 2.4-.9 2.6-1zm97.7-.3V34.9h-3.8l-11.3 15.9L120 34.9h-5c.7.5 1.4 1.2 2.1 2.1.7.9 1.1 1.7 1.1 2.3v22.5h1V39.7L133 54.3l12.7-17.9v25.4h3.6zm20.2-8.9l-.1 2.5v3c.1 1.4.5 2.4 1.3 2.8.7.4 2.2.6 4.3.6-1.6-.3-2.3-2.3-2.3-5.9v-6.1c0-5.6-8.9-9.5-14.8-7.1l-3.2 3.9 5.8-2.1c2.8-1 5.1-1.4 6.8-.9 1.7.5 2.4 1.9 2.4 4.1 0 .7-1.6 1.4-3.3 1.9-2.3.7-4.6 1.2-4.6 1.2-3.8.8-6.3 2.3-7.5 4.4-.9 1.6-.9 3.1 0 4.6 1 1.5 2.7 2.3 4.9 2.3 1.4 0 2.9-.5 4.3-1.4 2.4-1.6 4.4-4.2 6.1-7.7l-.1-.1zm-7.9 6.5c-1.9.6-3.5-.1-4.8-2.1-1.3-2.3 0-3.6 1.5-4.5.7-.4 1.8-.7 2.4-.9.6-.2 1.4-.3 1.5-.3 2.5-.6 4.5-1.2 5.5-1.6.9-.4 1.6-.8 1.7-1l.1-.1v.9c0 1.7-.9 3.5-2.6 5.6-1.6 2-3.4 3.4-5.3 4zm30-3.4c-.9 1.4-2 2.7-3.2 3.6-1.9 1.4-3.6 1.9-5.1 1.5-1.4-.3-1.7-1.7-1.7-3l.1-13.4h6.1l1.9-2.3h-8v-4.7l-5.7 7h2.5V57c0 2.5 1.4 4.4 3.5 5 1 .3 2.2.3 3.4.1 2.4-.5 5.1-2.7 6.9-5.9l-.7-.2zm18.1-6.9v12.7h3.1V48.4c0-1.8-.6-3.3-1.7-4.5a6.94 6.94 0 00-4.1-2c-1.6-.2-3.3.1-5.1.8-1.8.7-3.4 1.9-4.7 3.4l-.1-14.1-3.1 2.9v26.9h3.2V47.4c1.6-1.9 3.4-3.1 5.4-3.6 1.8-.5 3.7-.7 5 .3 1.4 1 2.1 2.7 2.1 5zm8.6-14c-.8.8-.8 2.1 0 2.9.8.8 2.1.8 2.9 0 .8-.8.8-2.1 0-2.9-.8-.7-2.1-.7-2.9 0zm3 7.3h-3.2v17.1l-.2 2.3h3.5l-.1-2.3zm21.4 13.3c-.2-2.3-2.4-3.9-5.2-4.8-1.4-.4-2.8-.9-4.2-1.3-2.8-.8-5-2-5.2-3.9-.1-.8.4-1.6 1.4-2 1-.4 1.6-.6 2.7-.8 3.1-.3 5.6 0 7 1.4 1.4 1.4 2.1 3.1 2.4 4.8h.2v-5.8c-4.3-1.6-8-1.9-11.1-1-3.1.9-4.6 2.8-4.3 5.7.2 2.2 2.4 3.8 5.2 4.8 1.4.5 2.8 1 4.1 1.4 2.8.9 4.8 2.1 4.9 3.4 0 .3 0 .6-.2 1-.4 1.4-1.6 2.3-3.5 2.8-2.1.5-4.2.2-6.1-1-2.5-1.4-3.7-3.4-3.7-6.6l-.2-.1.1 7.9c1.9.3 3.3.4 4.3.5 1 .1 2.1.1 3.6.2 2.8 0 4.7-.7 6.1-1.9.4-.4.9-1 1.3-2 .3-.8.5-1.8.4-2.7zm-59.1 18.6h3.3v.7h-3.3zm-63.2-2.2c1.2 0 1.8.4 2.3 1.2l.9-.6c-.7-.9-1.7-1.4-3.1-1.4-1.7 0-2.7.9-2.7 1.9 0 1.3 1.3 1.6 2.6 1.8 1.1.2 2.2.4 2.2 1.2 0 .7-.6 1.2-1.7 1.2s-1.9-.4-2.5-1.2l-.8.6c.7.9 1.8 1.4 3.3 1.4 1.7 0 2.7-.8 2.7-2 0-1.4-1.4-1.6-2.6-1.8-1.2-.2-2.1-.3-2.1-1.2-.2-.6.4-1.1 1.5-1.1zm4.1 0h2.5v6h1v-6h2.5v-.8h-6zm7.1 4.7c-.5 0-.8.3-.8.7 0 .4.3.7.8.7s.8-.3.8-.7c-.1-.4-.4-.7-.8-.7zm9.4-.1l-.3.6-.2-.6-2.2-5.4h-1.4v6.8h.9V72l.4 1.1 2.1 5h.8l2.2-5 .3-1.1v6.1h1v-6.8h-1.4zm8.8-5.4c-2.3 0-3.6 1.6-3.6 3.5 0 1.8 1.1 3.5 3.5 3.5s3.6-1.6 3.6-3.5c.1-2-1.1-3.5-3.5-3.5zm0 6.1c-1.8 0-2.5-1.2-2.5-2.7 0-1.4.9-2.7 2.5-2.7 1.7 0 2.5 1.2 2.5 2.7 0 1.4-.8 2.7-2.5 2.7zm10.5-2c-.2-.2-.5-.2-.9-.3.6-.1 1-.3 1.4-.6.4-.3.6-.7.6-1.3 0-1.1-.8-1.9-2.7-1.9h-3.2V78h1v-2.7h1.6c1.4 0 1.7.2 2.1 1.5l.3 1.2h1l-.3-1.2c-.3-.7-.5-1.2-.9-1.4zm-3.9-.6v-2.6h2c1.4 0 1.9.5 1.9 1.3 0 .9-.8 1.3-2 1.3h-1.9zm7-3.5h1V78h-1zm2.9.8h2.5v6h1v-6h2.5v-.8h-6zm9.3 4.4l3.8-4.4v-.8h-5.5v.8h4.5l-.6.7-4 4.5v.8h5.7v-.8h-4.7zm17-1.5h3.5v-.7h-3.5v-2.2h4.4v-.8h-5.4v6.8h5.4v-.8h-4.4zm8.7-2.9c1.2 0 1.8.4 2.3 1.2l.9-.6c-.7-.9-1.7-1.4-3.1-1.4-1.7 0-2.7.9-2.7 1.9 0 1.3 1.3 1.6 2.6 1.8 1.1.2 2.2.4 2.2 1.2 0 .7-.6 1.2-1.7 1.2s-1.9-.4-2.5-1.2l-.8.6c.7.9 1.8 1.4 3.3 1.4 1.7 0 2.7-.8 2.7-2 0-1.4-1.4-1.6-2.7-1.8-1.2-.2-2.1-.3-2.1-1.2 0-.6.5-1.1 1.6-1.1zm4.6 0h2.5v6h1v-6h2.4v-.8h-5.9zm7.1 4.7c-.5 0-.8.3-.8.7 0 .4.3.7.8.7s.8-.3.8-.7c-.1-.4-.4-.7-.8-.7zm4.7-4l-.1.9h.1c.8 0 1.5-.4 1.8-1.1v5.5h1v-6.7h-.9c-.1 1-.8 1.4-1.9 1.4zm7.8-1.5c-1.7 0-2.7 1.1-2.7 2.4 0 1.3 1 2.1 2.4 2.1 1 0 1.9-.4 2.3-1.3v.1c0 1.9-.9 2.8-2.2 2.8-.8 0-1.4-.2-1.8-.7l-.7.6c.5.6 1.3.9 2.5.9 1.8 0 3.2-1.3 3.2-3.6.1-1.9-.9-3.3-3-3.3zm0 3.8c-1 0-1.7-.5-1.7-1.5 0-.9.6-1.6 1.8-1.6 1.1 0 1.8.6 2 1.7-.4 1-1.2 1.4-2.1 1.4zm7.8-1.5c-1 0-1.9.5-2.3 1.4v-.2c0-1.9 1-2.8 2.3-2.8.8 0 1.3.2 1.8.7l.7-.6c-.5-.6-1.3-.9-2.4-.9-1.8 0-3.3 1.2-3.3 3.6 0 1.8 1 3.3 3 3.3 1.7 0 2.7-1.1 2.7-2.4 0-1.2-1-2.1-2.5-2.1zm-.3 3.8c-1 0-1.7-.6-2-1.6.3-1 1.2-1.4 2.1-1.4 1 0 1.7.5 1.7 1.5 0 .8-.6 1.5-1.8 1.5zm4-5.3h4.1l-3.2 6h1.1l3-6v-.8h-5z"/></svg>